<?xml version="1.0" standalone="no"?>
<!DOCTYPE svg PUBLIC "-//W3C//DTD SVG 1.1//EN" "http://www.w3.org/Graphics/SVG/1.1/DTD/svg11.dtd" >
<svg>
<metadata>
Created by FontForge 20090914 at Thu Sep 14 14:10:10 2017
 By www-data
Copyright (c) 2012 by CloutierFontes. All rights reserved.
</metadata>
<defs>
<font id="CFSamuraiBob-Regular" horiz-adv-x="396" >
  <font-face 
    font-family="CF Samurai Bob"
    font-weight="400"
    font-stretch="normal"
    units-per-em="1000"
    panose-1="0 0 0 0 0 0 0 0 0 0"
    ascent="800"
    descent="-200"
    x-height="426"
    cap-height="434"
    bbox="-7 -41.999 474 800"
    underline-thickness="50"
    underline-position="-50"
    unicode-range="U+000D-U+007A"
  />
<missing-glyph horiz-adv-x="500" 
d="M63 0v800h375v-800h-375zM125 63h250v675h-250v-675z" />
    <glyph glyph-name=".notdef" horiz-adv-x="500" 
d="M63 0v800h375v-800h-375zM125 63h250v675h-250v-675z" />
    <glyph glyph-name="NULL" horiz-adv-x="0" 
 />
    <glyph glyph-name="NULL" horiz-adv-x="0" 
 />
    <glyph glyph-name="nonmarkingreturn" unicode="&#xd;" horiz-adv-x="250" 
 />
    <glyph glyph-name="space" unicode=" " horiz-adv-x="250" 
 />
    <glyph glyph-name="zero" unicode="0" horiz-adv-x="393" 
d="M351 -3h-307v430h307v-430zM256 91v241h-120v-241h120z" />
    <glyph glyph-name="one" unicode="1" horiz-adv-x="172" 
d="M130 1h-94v431h94v-431z" />
    <glyph glyph-name="two" unicode="2" horiz-adv-x="387" 
d="M347 248l-168 -153h165v-94h-307v93l215 197v45h-215v96h310v-184z" />
    <glyph glyph-name="three" unicode="3" horiz-adv-x="387" 
d="M346 0h-309v94h214v70h-128v93h128v79h-214v96h309v-432z" />
    <glyph glyph-name="four" unicode="4" horiz-adv-x="407" 
d="M378 113c-11.333 2 -22.333 2 -33 0h-3c-1.33301 -2 -1.83301 -5.33301 -1.5 -10s0.5 -8.66699 0.5 -12v-88h-95v108c-1.33301 1.33301 -2.33301 1.83301 -3 1.5s-2.66699 -0.5 -6 -0.5h-201v97l181 226h121l6 -228h34v-94zM245 208l0.000976562 107.001l-84 -107
c14 1.33301 28.167 1.66602 42.5 0.999023s28.166 -1 41.499 -1z" />
    <glyph glyph-name="five" unicode="5" horiz-adv-x="378" 
d="M337 -3l-305 -0.000976562v96h163l-163 155v181h305v-94h-211c-1.33301 -3.33301 -2 -7.5 -2 -12.5v-11.5c0 -3.33301 -0.5 -7 -1.5 -11s-0.166992 -7.66699 2.5 -11c13.333 -15.333 27.5 -29.666 42.5 -42.999l45.5 -40l60.5 -55l63.5 -57v-97z" />
    <glyph glyph-name="six" unicode="6" horiz-adv-x="387" 
d="M348 337h-214v-72h213v-266h-308v429h309v-91zM253 92l-0.000976562 76.999c-10 2 -17.667 3 -23 3c-2 0 -6.66699 -0.166992 -14 -0.5s-15.833 -0.666016 -25.5 -0.999023s-19.667 -0.5 -30 -0.5s-19.166 0.333008 -26.499 1v-79h119z" />
    <glyph glyph-name="seven" unicode="7" horiz-adv-x="349" 
d="M336 159c-3.33301 0 -8.83301 0.329102 -16.5 0.996094s-12.5 -1 -14.5 -5c-0.666992 -25.333 -0.833984 -51 -0.500977 -77s1.16602 -52.333 2.49902 -79c-13.333 -1.33301 -28.166 -2.16602 -44.499 -2.49902s-32.166 -0.166016 -47.499 0.500977
c-2.66699 2.66699 -4 7 -4 13c0 24 -0.333008 48.167 -1 72.5s-0.333984 48.5 0.999023 72.5c-3.33301 4.66699 -8.5 6.33398 -15.5 5.00098s-13.167 -1.66602 -18.5 -0.999023v96c10.667 -1.33301 22.334 -1.33301 35.001 0v78h-177v96h270v-174c10 -2 20.333 -2 31 0v-96z
" />
    <glyph glyph-name="eight" unicode="8" horiz-adv-x="404" 
d="M366 -1h-324v430h324v-430zM271 264v70h-134v-70h134zM271 93v77h-134v-77h134z" />
    <glyph glyph-name="nine" unicode="9" horiz-adv-x="390" 
d="M385 161l-38.001 -0.000976562v-163h-309v92h214c0 17.333 -0.166992 30.833 -0.5 40.5s-0.5 16.834 -0.5 21.501v9c0 1.33301 0.333008 2.33301 1 3h-214v264h309v-171c12.667 -2 25.334 -2 38.001 0v-96zM251.999 256.999v76h-119v-76h119z" />
    <glyph glyph-name="A" unicode="A" horiz-adv-x="399" 
d="M398 147h-42.999v-148h-96v147h-119c-2 -23.333 -2.83301 -47.333 -2.5 -72s1.16602 -49.667 2.49902 -75h-96v146c-13.333 2 -27.333 2 -42 0v96h40v190h311v-189c14.667 -1.33301 29.667 -1.33301 45 0v-95zM258.001 242v94h-119v-94h119z" />
    <glyph glyph-name="B" unicode="B" horiz-adv-x="450" 
d="M446 174h-44.999v-174h-357v93h44v242c-14.667 2 -29.334 2 -44.001 0v96h354v-161c16 -2 32 -2 48 0v-96zM303.001 336h-119v-67h119v67zM305.001 95v78h-121v-78h121z" />
    <glyph glyph-name="C" unicode="C" horiz-adv-x="408" 
d="M353 337h-214v-243h212v-95h-307v431h309v-93z" />
    <glyph glyph-name="D" unicode="D" horiz-adv-x="439" 
d="M393 0h-349v93h39v244h-44v93h354v-430zM298 94v242h-119v-242h119z" />
    <glyph glyph-name="E" unicode="E" 
d="M351 2h-309.002v174c-5.33301 0.666992 -10.666 1 -15.999 1s-10.666 -0.666992 -15.999 -2v96h29v162h312v-94h-217v-67h131v-95h-131v-80h217v-95z" />
    <glyph glyph-name="F" unicode="F" 
d="M353 339h-215.001c-1.33301 -11.333 -1.66602 -22.333 -0.999023 -33s1 -21.667 1 -33h129v-96h-128v-175h-98l3 4v168c-10.667 3.33301 -21.667 3.33301 -33 0v94c1.33301 1.33301 3.5 2 6.5 2h9.5c3.33301 0 6.5 0.166992 9.5 0.5s5.16699 1.83301 6.5 4.5
c0.666992 26.667 0.5 53.167 -0.5 79.5s-1.5 52.5 -1.5 78.5h312v-94z" />
    <glyph glyph-name="G" unicode="G" horiz-adv-x="387" 
d="M371 154h-26v-155h-308v432h311v-91h-218v-245h121v59h-63v94h183v-94z" />
    <glyph glyph-name="H" unicode="H" horiz-adv-x="390" 
d="M350 -1l-94.998 -0.00195312v175c-7.33301 -0.666992 -15.833 -1 -25.5 -1h-30h-31h-28.5c-0.666992 -0.666992 -1.33398 -1 -2.00098 -1l-2 -2c-0.666992 -28 -1 -56.667 -1 -86s0.666992 -56.666 2 -81.999c-0.666992 -0.666992 -2 -1.16699 -4 -1.5
s-6.16699 -0.5 -12.5 -0.5h-28.5c-12.667 0 -30 0.333008 -52 1v430h100l-2 -2c-1.33301 -1.33301 -2 -2.66602 -2 -3.99902v-38.5v-41.5c0 -14 0.166992 -27.667 0.5 -41s0.5 -25.333 0.5 -36c13.333 -1.33301 31.166 -2 53.499 -2s43.5 0.666992 63.5 2v163h96v-432z" />
    <glyph glyph-name="I" unicode="I" horiz-adv-x="268" 
d="M224 341c-6.66699 0 -13.6689 -0.332031 -21.002 -0.999023s-15 -0.333984 -23 0.999023v-245h40v-94h-182v93h46v242l-4 4c-1.33301 -0.666992 -2.16602 -1.16699 -2.49902 -1.5s-1.66602 -0.5 -3.99902 -0.5s-6 0.166992 -11 0.5l-22.5 1.5v93h184v-93z" />
    <glyph glyph-name="J" unicode="J" horiz-adv-x="265" 
d="M219 1h-182v94h86v338h96v-432z" />
    <glyph glyph-name="K" unicode="K" horiz-adv-x="407" 
d="M397 2h-129l-117 117c-4 -4 -7.66699 -7.83301 -11 -11.5s-7 -7.16699 -11 -10.5v-96h-94v432h96v-199l180 180l66 -67l-160 -162z" />
    <glyph glyph-name="L" unicode="L" horiz-adv-x="393" 
d="M351 3h-309v430h94v-337h215v-93z" />
    <glyph glyph-name="M" unicode="M" horiz-adv-x="514" 
d="M471 2h-97v294c-12.667 -12 -25.167 -24.667 -37.5 -38l-38.5 -41c0.666992 -35.333 0.5 -71 -0.5 -107s-1.5 -72 -1.5 -108h-92v205c0 5.33301 -2.83301 11.833 -8.5 19.5s-12.5 15.5 -20.5 23.5l-24.5 24l-20.5 20v-292h-96v429h89l127 -122l129 122h92v-429z" />
    <glyph glyph-name="N" unicode="N" 
d="M353 2h-93v161l-129 132v-293h-96v430h94l65.5 -65l63.5 -63v130h95v-432z" />
    <glyph glyph-name="O" unicode="O" horiz-adv-x="393" 
d="M351 -3h-307v430h307v-430zM256 91v241h-120v-241h120z" />
    <glyph glyph-name="P" unicode="P" 
d="M355 163h-214v-165h-95v336c-14 2 -28.333 2 -43 0v96h352v-267zM260 259v76h-119v-76h119z" />
    <glyph glyph-name="Q" unicode="Q" horiz-adv-x="390" 
d="M392 27l-66.0029 -68.999l-19 22c-6.66699 8 -13.667 13.667 -21 17s-16.666 4.66602 -27.999 3.99902s-18.666 -1 -21.999 -1h-196v430h307v-72.5c0 -25 0.166992 -50 0.5 -75s0.5 -49 0.5 -72v-63.5c0 -11.333 0.333008 -23.833 1 -37.5
s0.333984 -26.167 -0.999023 -37.5l22 -22.5zM251.997 168.001v166.999h-117v-242c9.33301 0 18.5 0.333008 27.5 1s17.167 0.333984 24.5 -0.999023c-3.33301 5.33301 -7.83301 10.833 -13.5 16.5l-16.5 16.5l69 67z" />
    <glyph glyph-name="R" unicode="R" horiz-adv-x="388" 
d="M392 1h-129l-130 125v-130h-95v336c-15.333 0.666992 -30.333 0.666992 -45 0v96h354v-268h-112zM252 256v77h-119v-77h119z" />
    <glyph glyph-name="S" unicode="S" 
d="M352 -1h-303.999v96h207l-109 109l-102 105c-1.33301 9.33301 -2 20.5 -2 33.5v24.5c0 1.33301 0.166992 4.5 0.5 9.5s0.666016 10.667 0.999023 17s0.5 12.833 0.5 19.5s-0.333008 12.667 -1 18h309v-96h-202l202 -202v-134z" />
    <glyph glyph-name="T" unicode="T" horiz-adv-x="426" 
d="M387 336h-130.004v-61c14.667 -1.33301 29.667 -1.33301 45 0v-96c-7.33301 -0.666992 -14.666 -0.333984 -21.999 0.999023s-14.666 -0.333984 -21.999 -5.00098c-0.666992 -29.333 -0.5 -58.166 0.5 -86.499s1.5 -57.166 1.5 -86.499
c-0.666992 -0.666992 -2 -1.16699 -4 -1.5s-6.16699 -0.5 -12.5 -0.5s-15.666 0.166992 -27.999 0.5s-29.166 0.833008 -50.499 1.5v176c-14 2 -29 2 -45 0v96h42c2.66699 19.333 2.66699 40.333 0 63h-125v94h350v-95z" />
    <glyph glyph-name="U" unicode="U" horiz-adv-x="384" 
d="M346 0h-309v431h94v-337h119v337h96v-431z" />
    <glyph glyph-name="V" unicode="V" horiz-adv-x="445" 
d="M413 426l-148 -427h-96l-145 427h99l94 -277l97 277h99z" />
    <glyph glyph-name="W" unicode="W" horiz-adv-x="519" 
d="M474 -2h-89l-127 122l-122 -121h-98v428h95v-295c11.333 10 23.5 21.667 36.5 35l42.5 45v215h94v-220l34.5 -35l37.5 -37v292h96v-429z" />
    <glyph glyph-name="X" unicode="X" horiz-adv-x="439" 
d="M410 431l-135 -226l120 -204h-110l-67 110l-66 -110h-112l122 204l-135 226h110l79 -133l40.5 65.5l41.5 67.5h112z" />
    <glyph glyph-name="Y" unicode="Y" horiz-adv-x="422" 
d="M401 430l-107.999 -180.997h68v-96h-102v-157c-15.333 1.33301 -31.833 1.66602 -49.5 0.999023s-32.834 -1 -45.501 -1v156c-19.333 1.33301 -37.333 2 -54 2h-51v96h65l-105 180c8 -0.666992 17.5 -1 28.5 -1s21.833 0.166992 32.5 0.5s20 0.666016 28 0.999023
s12.667 0.5 14 0.5s5.33301 -5 12 -15s14.167 -22 22.5 -36l26.5 -44l24 -40c4 5.33301 9.33301 13.166 16 23.499l21 34l22.5 37.5l22.5 36c17.333 2 35.5 3 54.5 3h57.5z" />
    <glyph glyph-name="Z" unicode="Z" horiz-adv-x="381" 
d="M342 309l-210 -215h206v-95h-306v131l205 206h-203v95h308v-122z" />
    <glyph glyph-name="a" unicode="a" horiz-adv-x="399" 
d="M398 147h-42.999v-148h-96v147h-119c-2 -23.333 -2.83301 -47.333 -2.5 -72s1.16602 -49.667 2.49902 -75h-96v146c-13.333 2 -27.333 2 -42 0v96h40v190h311v-189c14.667 -1.33301 29.667 -1.33301 45 0v-95zM258.001 242v94h-119v-94h119z" />
    <glyph glyph-name="b" unicode="b" horiz-adv-x="450" 
d="M446 174h-44.999v-174h-357v93h44v242c-14.667 2 -29.334 2 -44.001 0v96h354v-161c16 -2 32 -2 48 0v-96zM303.001 336h-119v-67h119v67zM305.001 95v78h-121v-78h121z" />
    <glyph glyph-name="c" unicode="c" horiz-adv-x="408" 
d="M353 337h-214v-243h212v-95h-307v431h309v-93z" />
    <glyph glyph-name="d" unicode="d" horiz-adv-x="439" 
d="M393 0h-349v93h39v244h-44v93h354v-430zM298 94v242h-119v-242h119z" />
    <glyph glyph-name="e" unicode="e" 
d="M351 2h-309.002v174c-5.33301 0.666992 -10.666 1 -15.999 1s-10.666 -0.666992 -15.999 -2v96h29v162h312v-94h-217v-67h131v-95h-131v-80h217v-95z" />
    <glyph glyph-name="f" unicode="f" 
d="M353 339h-215.001c-1.33301 -11.333 -1.66602 -22.333 -0.999023 -33s1 -21.667 1 -33h129v-96h-128v-175h-98l3 4v168c-10.667 3.33301 -21.667 3.33301 -33 0v94c1.33301 1.33301 3.5 2 6.5 2h9.5c3.33301 0 6.5 0.166992 9.5 0.5s5.16699 1.83301 6.5 4.5
c0.666992 26.667 0.5 53.167 -0.5 79.5s-1.5 52.5 -1.5 78.5h312v-94z" />
    <glyph glyph-name="g" unicode="g" horiz-adv-x="387" 
d="M371 154h-26v-155h-308v432h311v-91h-218v-245h121v59h-63v94h183v-94z" />
    <glyph glyph-name="h" unicode="h" horiz-adv-x="390" 
d="M350 -1l-94.998 -0.00195312v175c-7.33301 -0.666992 -15.833 -1 -25.5 -1h-30h-31h-28.5c-0.666992 -0.666992 -1.33398 -1 -2.00098 -1l-2 -2c-0.666992 -28 -1 -56.667 -1 -86s0.666992 -56.666 2 -81.999c-0.666992 -0.666992 -2 -1.16699 -4 -1.5
s-6.16699 -0.5 -12.5 -0.5h-28.5c-12.667 0 -30 0.333008 -52 1v430h100l-2 -2c-1.33301 -1.33301 -2 -2.66602 -2 -3.99902v-38.5v-41.5c0 -14 0.166992 -27.667 0.5 -41s0.5 -25.333 0.5 -36c13.333 -1.33301 31.166 -2 53.499 -2s43.5 0.666992 63.5 2v163h96v-432z" />
    <glyph glyph-name="i" unicode="i" horiz-adv-x="268" 
d="M224 341c-6.66699 0 -13.6689 -0.332031 -21.002 -0.999023s-15 -0.333984 -23 0.999023v-245h40v-94h-182v93h46v242l-4 4c-1.33301 -0.666992 -2.16602 -1.16699 -2.49902 -1.5s-1.66602 -0.5 -3.99902 -0.5s-6 0.166992 -11 0.5l-22.5 1.5v93h184v-93z" />
    <glyph glyph-name="j" unicode="j" horiz-adv-x="265" 
d="M219 1h-182v94h86v338h96v-432z" />
    <glyph glyph-name="k" unicode="k" horiz-adv-x="407" 
d="M397 2h-129l-117 117c-4 -4 -7.66699 -7.83301 -11 -11.5s-7 -7.16699 -11 -10.5v-96h-94v432h96v-199l180 180l66 -67l-160 -162z" />
    <glyph glyph-name="l" unicode="l" horiz-adv-x="393" 
d="M351 3h-309v430h94v-337h215v-93z" />
    <glyph glyph-name="m" unicode="m" horiz-adv-x="514" 
d="M471 2h-97v294c-12.667 -12 -25.167 -24.667 -37.5 -38l-38.5 -41c0.666992 -35.333 0.5 -71 -0.5 -107s-1.5 -72 -1.5 -108h-92v205c0 5.33301 -2.83301 11.833 -8.5 19.5s-12.5 15.5 -20.5 23.5l-24.5 24l-20.5 20v-292h-96v429h89l127 -122l129 122h92v-429z" />
    <glyph glyph-name="n" unicode="n" 
d="M353 2h-93v161l-129 132v-293h-96v430h94l65.5 -65l63.5 -63v130h95v-432z" />
    <glyph glyph-name="o" unicode="o" horiz-adv-x="393" 
d="M351 -3h-307v430h307v-430zM256 91v241h-120v-241h120z" />
    <glyph glyph-name="p" unicode="p" 
d="M355 163h-214v-165h-95v336c-14 2 -28.333 2 -43 0v96h352v-267zM260 259v76h-119v-76h119z" />
    <glyph glyph-name="q" unicode="q" horiz-adv-x="390" 
d="M392 27l-66.0029 -68.999l-19 22c-6.66699 8 -13.667 13.667 -21 17s-16.666 4.66602 -27.999 3.99902s-18.666 -1 -21.999 -1h-196v430h307v-72.5c0 -25 0.166992 -50 0.5 -75s0.5 -49 0.5 -72v-63.5c0 -11.333 0.333008 -23.833 1 -37.5
s0.333984 -26.167 -0.999023 -37.5l22 -22.5zM251.997 168.001v166.999h-117v-242c9.33301 0 18.5 0.333008 27.5 1s17.167 0.333984 24.5 -0.999023c-3.33301 5.33301 -7.83301 10.833 -13.5 16.5l-16.5 16.5l69 67z" />
    <glyph glyph-name="r" unicode="r" horiz-adv-x="388" 
d="M392 1h-129l-130 125v-130h-95v336c-15.333 0.666992 -30.333 0.666992 -45 0v96h354v-268h-112zM252 256v77h-119v-77h119z" />
    <glyph glyph-name="s" unicode="s" 
d="M352 -1h-303.999v96h207l-109 109l-102 105c-1.33301 9.33301 -2 20.5 -2 33.5v24.5c0 1.33301 0.166992 4.5 0.5 9.5s0.666016 10.667 0.999023 17s0.5 12.833 0.5 19.5s-0.333008 12.667 -1 18h309v-96h-202l202 -202v-134z" />
    <glyph glyph-name="t" unicode="t" horiz-adv-x="426" 
d="M387 336h-130.004v-61c14.667 -1.33301 29.667 -1.33301 45 0v-96c-7.33301 -0.666992 -14.666 -0.333984 -21.999 0.999023s-14.666 -0.333984 -21.999 -5.00098c-0.666992 -29.333 -0.5 -58.166 0.5 -86.499s1.5 -57.166 1.5 -86.499
c-0.666992 -0.666992 -2 -1.16699 -4 -1.5s-6.16699 -0.5 -12.5 -0.5s-15.666 0.166992 -27.999 0.5s-29.166 0.833008 -50.499 1.5v176c-14 2 -29 2 -45 0v96h42c2.66699 19.333 2.66699 40.333 0 63h-125v94h350v-95z" />
    <glyph glyph-name="u" unicode="u" horiz-adv-x="384" 
d="M346 0h-309v431h94v-337h119v337h96v-431z" />
    <glyph glyph-name="v" unicode="v" horiz-adv-x="445" 
d="M413 426l-148 -427h-96l-145 427h99l94 -277l97 277h99z" />
    <glyph glyph-name="w" unicode="w" horiz-adv-x="519" 
d="M474 -2h-89l-127 122l-122 -121h-98v428h95v-295c11.333 10 23.5 21.667 36.5 35l42.5 45v215h94v-220l34.5 -35l37.5 -37v292h96v-429z" />
    <glyph glyph-name="x" unicode="x" horiz-adv-x="439" 
d="M410 431l-135 -226l120 -204h-110l-67 110l-66 -110h-112l122 204l-135 226h110l79 -133l40.5 65.5l41.5 67.5h112z" />
    <glyph glyph-name="y" unicode="y" horiz-adv-x="422" 
d="M401 430l-107.999 -180.997h68v-96h-102v-157c-15.333 1.33301 -31.833 1.66602 -49.5 0.999023s-32.834 -1 -45.501 -1v156c-19.333 1.33301 -37.333 2 -54 2h-51v96h65l-105 180c8 -0.666992 17.5 -1 28.5 -1s21.833 0.166992 32.5 0.5s20 0.666016 28 0.999023
s12.667 0.5 14 0.5s5.33301 -5 12 -15s14.167 -22 22.5 -36l26.5 -44l24 -40c4 5.33301 9.33301 13.166 16 23.499l21 34l22.5 37.5l22.5 36c17.333 2 35.5 3 54.5 3h57.5z" />
    <glyph glyph-name="z" unicode="z" horiz-adv-x="381" 
d="M342 309l-210 -215h206v-95h-306v131l205 206h-203v95h308v-122z" />
  </font>
</defs>
</svg>
